<?xml version="1.0" standalone="no"?>
<!DOCTYPE svg PUBLIC "-//W3C//DTD SVG 1.1//EN" "http://www.w3.org/Graphics/SVG/1.1/DTD/svg11.dtd" >
<svg>
<metadata>
Created by FontForge 20110222 at Fri Nov 14 13:16:52 2014
 By deploy user
Copyright (c) 2011 by P. A. Vannucci. All rights reserved.
</metadata>
<defs>
<font id="AmazingSpiderMan" horiz-adv-x="801" >
  <font-face 
    font-family="Amazing Spider Man"
    font-weight="400"
    font-stretch="normal"
    units-per-em="1000"
    panose-1="2 0 0 0 0 0 0 0 0 0"
    ascent="800"
    descent="-200"
    x-height="801"
    cap-height="802"
    bbox="-9 -214 824 806"
    underline-thickness="50"
    underline-position="-50"
    unicode-range="U+0020-2026"
  />
<missing-glyph horiz-adv-x="416" 
 />
    <glyph glyph-name=".notdef" horiz-adv-x="416" 
 />
    <glyph glyph-name="P" unicode="P" 
d="M641 644h-481v-353h-1v-34h-1v-257q-70 8 -115 42q-44 35 -44 80v175h2v507h600q109 0 154 -48q46 -47 46 -77v-225q0 -30 -45.5 -77.5t-154.5 -47.5l-389 -4q8 70 39 117t76 47h30h284v155z" />
    <glyph glyph-name="C" unicode="C" 
d="M199 4q-108 3 -153 51q-46 47 -46 77l1 547q0 30 46 77q45 48 154 48h499q37 -6 62 -46q32 -46 40 -117l-641 3l-1 -477l639 -1q-9 -74 -41 -120q-25 -40 -62 -46z" />
    <glyph glyph-name="D" unicode="D" 
d="M102 641q-37 6 -62 46q-32 46 -40 117h601q109 0 154 -48q46 -47 46 -77l1 -547q0 -30 -46 -77q-45 -48 -154 -48l-603 -4l4 587l159 1l-1 -424h481l-1 477l-539 -3v0z" />
    <glyph glyph-name="E" unicode="E" 
d="M199 4q-108 3 -153 51q-46 47 -46 77l1 547q0 30 46 77q45 48 154 48h499q37 -6 62 -46q32 -46 40 -117l-641 3v-155l641 3q-8 -71 -40 -117q-25 -40 -62 -46h-499q-22 0 -41 2v-164l639 -1q-9 -74 -41 -120q-25 -40 -62 -46zM1 454v37q0 -65 0 -37zM160 489h1h-1z" />
    <glyph glyph-name="F" unicode="F" 
d="M160 0q-70 8 -115 42q-44 35 -44 80v98h-1l1 459q0 30 46 77q45 48 154 48h499q37 -6 62 -46q32 -46 40 -117l-641 3v-155l641 3q-8 -71 -40 -117q-25 -40 -62 -46h-499q-22 0 -41 2v-331z" />
    <glyph glyph-name="G" unicode="G" 
d="M311 327q-37 6 -62 46q-34 40 -40 114h166v1l113 -1h9l104 -1q108 -3 153 -51q46 -47 46 -77l2 -191q-13 -77 -44 -121q-25 -40 -62 -46l-497 4q-108 3 -153 51q-46 47 -46 77l1 547q0 30 46 77q45 48 154 48h499q37 -6 62 -46q32 -46 40 -117l-641 3l-1 -477l480 -1v118
v39l-329 4v0z" />
    <glyph glyph-name="H" unicode="H" 
d="M642 799q79 -7 115 -46q46 -47 46 -77l1 -547q0 -30 -46 -77q-36 -39 -115 -49v327h-482v-324q-79 10 -115 49q-46 47 -46 77l1 547q0 30 46 77q36 39 115 46l-1 -310h482z" />
    <glyph glyph-name="I" unicode="I" horiz-adv-x="164" 
d="M0 627h2l-1 175q79 -7 115 -46q46 -47 46 -77l-1 -673q-79 10 -115 49q-46 47 -46 77v495z" />
    <glyph glyph-name="J" unicode="J" 
d="M48 435q37 39 117 48l-3 -317l480 1v635q77 -8 113 -46q46 -47 46 -77l1 -547q0 -30 -46 -77q-45 -48 -153 -51l-497 -4q-37 6 -62 46q-31 44 -44 121l2 191q0 30 46 77z" />
    <glyph glyph-name="K" unicode="K" 
d="M642 799q79 -7 115 -46q46 -47 46 -77l1 -547q0 -30 -46 -77q-36 -39 -115 -49v327h-482v-324q-79 10 -115 49q-46 47 -46 77l1 547q0 30 46 77q36 39 115 46l-1 -310h482z" />
    <glyph glyph-name="N" unicode="N" horiz-adv-x="665" 
d="M111 761q-12 7 2 -2.5t41 -39.5q39 -41 85 -93.5t92 -107.5t88.5 -108t75.5 -95v361q0 30 46 77q36 39 115 46l-1 -802q-47 -1 -115 49q-35 35 -344 403q-10 9 -34 32l-1 -475h-1v-1h-160v179l1 618q74 -7 110 -41z" />
    <glyph glyph-name="L" unicode="L" 
d="M-2 801q71 -8 117 -40q40 -25 46 -62l-1 -532l639 -1q-9 -74 -41 -120q-25 -40 -62 -46l-497 4q-108 3 -153 51q-46 47 -46 77z" />
    <glyph glyph-name="M" unicode="M" 
d="M154 719q-1 0 10.5 -15.5t32 -41t47 -59t54 -68.5t54.5 -68.5t48 -60.5l1 3q21 27 48 60.5t54.5 68.5t54 68.5t47 59t32 41t10.5 15.5q27 30 41 39.5t2 2.5q36 34 110 41l1 -612h-2v-190q-79 10 -115 49q-46 47 -46 77l1 299q-73 -85 -235 -258l-3 -2l-1 -3l-3 2
q-162 173 -235 258l1 -299q0 -30 -46 -77q-36 -39 -115 -49v190h-2l1 612q74 -7 110 -41q-12 7 2 -2.5t41 -39.5z" />
    <glyph glyph-name="O" unicode="O" 
d="M159 167h483l-1 477l-539 -3q-37 6 -62 46q-32 46 -40 117h601q109 0 154 -48q46 -47 46 -77l1 -547q0 -30 -46 -77q-45 -48 -154 -48l-339 -2v1l-64 1q-109 0 -154 48q-46 47 -46 77v180h1l3 278l159 1z" />
    <glyph glyph-name="Q" unicode="Q" 
d="M645 9q-20 -2 -43 -2l-339 -2v1l-64 1q-109 0 -154 48q-46 47 -46 77v180h1l3 278l159 1l-3 -424h483l-1 477l-539 -3q-37 6 -62 46q-32 46 -40 117h601q109 0 154 -48q46 -47 46 -77l3 -890q-65 13 -112 45q-40 24 -46 61z" />
    <glyph glyph-name="R" unicode="R" 
d="M641 489v155h-481l-2 -644q-70 8 -115 42q-44 35 -44 80v175h2v507h600q109 0 154 -48q46 -47 46 -77v-225q0 -30 -45.5 -77.5t-154.5 -47.5l-32 -5l238 -324h-234l-362 489h430z" />
    <glyph glyph-name="S" unicode="S" 
d="M159 330q-79 10 -115 49q-46 47 -46 77l3 223q0 30 46 77q45 48 154 48h499q37 -6 62 -46q32 -46 40 -117l-641 3v-153h481v1l2 -3q80 -14 115 -52q46 -47 46 -77l-3 -223q0 -30 -46 -77q-45 -48 -154 -59h-499q-37 6 -62 46q-32 46 -40 117l641 -3v164l-18 2z" />
    <glyph glyph-name="zero" unicode="0" 
d="M159 167h483l-1 477l-539 -3q-37 6 -62 46q-32 46 -40 117h601q109 0 154 -48q46 -47 46 -77l1 -547q0 -30 -46 -77q-45 -48 -154 -48l-339 -2v1l-64 1q-109 0 -154 48q-46 47 -46 77v180h1l3 278l159 1z" />
    <glyph glyph-name="T" unicode="T" 
d="M479 -6q-70 8 -115 42q-44 35 -44 80v242h1v284h-321v34q0 30 45.5 77.5t154.5 47.5l604 -3v-34q0 -30 -46 -77q-32 -34 -95 -45h-9h-175v-648z" />
    <glyph glyph-name="U" unicode="U" 
d="M203 7q-109 0 -154 48q-46 47 -46 77l1 547q0 30 46 77q36 38 113 46v-635h479l-1 196h1v439q77 -8 113 -46q46 -47 46 -77l1 -547q0 -30 -46 -77q-45 -48 -154 -48l-76 -1h-263z" />
    <glyph glyph-name="V" unicode="V" horiz-adv-x="642" 
d="M163 7q-93 0 -132 53v-1q-20 24 -30 46t-10 40l1 522q0 37 39 85v-1q34 45 120 55v-609h328v609q86 -10 120 -55v1q20 -24 29.5 -45.5t9.5 -39.5l1 -522q0 -18 -9.5 -40t-29.5 -46v1q-41 -53 -132 -53l-58 -1h-201z" />
    <glyph glyph-name="W" unicode="W" horiz-adv-x="822" 
d="M504 5q-56 0 -93 19q-36 -18 -90 -18l-58 -1l-45 1l-46 1q-93 0 -132 53v-1q-20 24 -30 46t-10 40l1 522q0 37 39 85v-1q34 45 120 55v-609l172 -1l1 469q-2 32 10 52.5t30.5 30.5t40 10t39.5 -10.5t29 -31t9 -50.5l1 -468v-3l172 -1v609q86 -10 120 -55v1
q20 -24 29.5 -45.5t9.5 -39.5l1 -522q0 -18 -9.5 -40t-29.5 -46v1q-41 -53 -132 -53l-58 -1l-45 1z" />
    <glyph glyph-name="X" unicode="X" 
d="M469 330h-367q-37 6 -62 46q-31 43 -39 110h-1v7l1 186q0 30 46 77q36 39 115 46l-1 -224v-85l309 -1h232q36 -7 61 -47q31 -46 39 -115h1l1 -201q0 -30 -46 -77q-36 -39 -115 -49v326zM161 281l5 -282q-71 6 -118 37q-40 24 -47 61l-2 184h162zM802 538h-162l-1 268
q72 -8 117 -39q41 -26 46 -64v-165z" />
    <glyph glyph-name="Y" unicode="Y" 
d="M102 0q-33 8 -57 48q-31 46 -37 117l634 -2l1 166l-174 1h-367q-37 6 -62 46q-31 43 -39 110h-1v7l1 186q0 30 46 77q36 39 115 46l-1 -224v-85l309 -1h169v314q72 -8 117 -39q41 -26 46 -64v-79h1v-294l1 -201q0 -30 -50 -78q-36 -39 -115 -49h-1z" />
    <glyph glyph-name="Z" unicode="Z" 
d="M801 -4l-663 1q-62 11 -95 45q-45 47 -45 77v32l-1 1l1 1l589 491l-387 -2q-109 0 -154.5 47.5t-45.5 77.5v34h663q63 -11 95 -45q46 -47 46 -77v-34l-586 -491l384 2q109 0 154 -47t45 -78v-35z" />
    <glyph glyph-name="hyphen" unicode="-" horiz-adv-x="449" 
d="M1 321q4 79 25 116q27 45 43 47l382 4q-5 -79 -27 -116q-25 -47 -43 -47z" />
    <glyph glyph-name="endash" unicode="&#x2013;" horiz-adv-x="449" 
d="M1 321q4 79 25 116q27 45 43 47l382 4q-5 -79 -27 -116q-25 -47 -43 -47z" />
    <glyph glyph-name="slash" unicode="/" horiz-adv-x="300" 
d="M133 627h2l36 175q77 -7 105 -46q36 -47 30 -77l-144 -673q-77 10 -105 49q-36 47 -29 77z" />
    <glyph glyph-name="one" unicode="1" horiz-adv-x="164" 
d="M0 627h2l-1 175q79 -7 115 -46q46 -47 46 -77l-1 -673q-79 10 -115 49q-46 47 -46 77v495z" />
    <glyph glyph-name="two" unicode="2" 
d="M179 327l-18 -2v-164l641 3q-8 -71 -40 -117q-25 -40 -62 -46h-499q-109 11 -154 59q-46 47 -46 77l-3 223q0 30 46 77q35 38 115 52l2 3v-1h481v153l-641 -3q8 71 40 117q25 40 62 46h499q109 0 154 -48q46 -47 46 -77l3 -223q0 -30 -46 -77q-36 -39 -115 -49z" />
    <glyph glyph-name="five" unicode="5" 
d="M159 330q-79 10 -115 49q-46 47 -46 77l3 223q0 30 46 77q45 48 154 48h499q37 -6 62 -46q32 -46 40 -117l-641 3v-153h481v1l2 -3q80 -14 115 -52q46 -47 46 -77l-3 -223q0 -30 -46 -77q-45 -48 -154 -59h-499q-37 6 -62 46q-32 46 -40 117l641 -3v164l-18 2z" />
    <glyph glyph-name="three" unicode="3" 
d="M106 0q-37 6 -62 46q-32 46 -41 120l639 1v164q-19 -2 -41 -2h-499q-37 6 -62 46q-32 46 -40 117l641 -3v155l-641 -3q8 71 40 117q25 40 62 46h499q109 0 154 -48q46 -47 46 -77v-245q0 -13 -11 -21t-28 -10q17 -2 28 -12t11 -24v-3l1 -232q0 -30 -46 -77
q-45 -48 -153 -51z" />
    <glyph glyph-name="four" unicode="4" 
d="M642 2v161l1 166l-174 1h-367q-37 6 -62 46q-31 43 -39 110h-1v7l1 186q0 30 46 77q36 39 115 46l-1 -224v-85l309 -1h169v314q72 -8 117 -39q41 -26 46 -64v-79h1v-294l1 -201q0 -30 -50 -78z" />
    <glyph glyph-name="six" unicode="6" 
d="M-2 163v118h156v-118l488 -2v164l-18 2l-465 3q-79 10 -115 49q-46 47 -46 77l3 223q0 30 46 77q36 38 114 46v-311h481v1l2 -3q80 -14 115 -52q46 -47 46 -77l-3 -223q0 -30 -46 -77q-45 -48 -154 -59h-499q-37 6 -62 46q-32 45 -40 116h-3z" />
    <glyph glyph-name="nine" unicode="9" 
d="M805 640v-118h-156v118l-488 2v-164l18 -2l465 -3q79 -10 115 -49q46 -47 46 -77l-3 -223q0 -30 -46 -77q-36 -38 -114 -46v311h-481v-1l-2 3q-80 14 -115 52q-46 47 -46 77l3 223q0 30 46 77q45 48 154 59h499q37 -6 62 -46q32 -45 40 -116h3z" />
    <glyph glyph-name="eight" unicode="8" 
d="M163 -1q-69 6 -115 37q-40 24 -47 61l-2 184h162l2 -116h479l1 164l-174 1h-367q-37 6 -62 46q-31 43 -39 110h-1v7l1 186q0 30 46 77q36 39 115 46l477 4q72 -8 117 -39q41 -26 46 -64v-165h-162l-1 104h-477l-1 -64v-85l309 -1h232q36 -7 61 -47q31 -46 39 -115h1
l1 -201q0 -30 -46 -77q-36 -39 -115 -49l-480 -6v2z" />
    <glyph glyph-name="seven" unicode="7" 
d="M753 53q-36 -38 -114 -46l-2 627l-639 1q9 74 41 120q25 40 62 46l497 -4q108 -3 153 -51q46 -47 46 -77l2 -539q0 -30 -46 -77z" />
    <glyph glyph-name="a" unicode="a" 
d="M641 328h-481l-1 -325q-70 8 -115 42q-44 35 -44 80v551q0 30 45.5 77.5t154.5 47.5h600v-801h-159v328zM160 487h481v154h-481v-154z" />
    <glyph glyph-name="c" unicode="c" 
d="M199 4q-108 3 -153 51q-46 47 -46 77l1 547q0 30 46 77q45 48 154 48h499q37 -6 62 -46q32 -46 40 -117l-641 3l-1 -477l639 -1q-9 -74 -41 -120q-25 -40 -62 -46z" />
    <glyph glyph-name="d" unicode="d" 
d="M102 641q-37 6 -62 46q-32 46 -40 117h601q109 0 154 -48q46 -47 46 -77l1 -547q0 -30 -46 -77q-45 -48 -154 -48l-603 -4l4 587l159 1l-1 -424h481l-1 477l-539 -3v0z" />
    <glyph glyph-name="e" unicode="e" 
d="M199 4q-108 3 -153 51q-46 47 -46 77l1 547q0 30 46 77q45 48 154 48h499q37 -6 62 -46q32 -46 40 -117l-641 3v-155l641 3q-8 -71 -40 -117q-25 -40 -62 -46h-499q-22 0 -41 2v-164l639 -1q-9 -74 -41 -120q-25 -40 -62 -46zM1 454v37q0 -65 0 -37zM160 489h1h-1z" />
    <glyph glyph-name="f" unicode="f" 
d="M160 0q-70 8 -115 42q-44 35 -44 80v98h-1l1 459q0 30 46 77q45 48 154 48h499q37 -6 62 -46q32 -46 40 -117l-641 3v-155l641 3q-8 -71 -40 -117q-25 -40 -62 -46h-499q-22 0 -41 2v-331z" />
    <glyph glyph-name="g" unicode="g" 
d="M311 327q-37 6 -62 46q-34 40 -40 114h166v1l113 -1h9l104 -1q108 -3 153 -51q46 -47 46 -77l2 -191q-13 -77 -44 -121q-25 -40 -62 -46l-497 4q-108 3 -153 51q-46 47 -46 77l1 547q0 30 46 77q45 48 154 48h499q37 -6 62 -46q32 -46 40 -117l-641 3l-1 -477l480 -1v118
v39l-329 4v0z" />
    <glyph glyph-name="h" unicode="h" 
d="M642 799q79 -7 115 -46q46 -47 46 -77l1 -547q0 -30 -46 -77q-36 -39 -115 -49v327h-482v-324q-79 10 -115 49q-46 47 -46 77l1 547q0 30 46 77q36 39 115 46l-1 -310h482z" />
    <glyph glyph-name="i" unicode="i" horiz-adv-x="164" 
d="M0 627h2l-1 175q79 -7 115 -46q46 -47 46 -77l-1 -673q-79 10 -115 49q-46 47 -46 77v495z" />
    <glyph glyph-name="j" unicode="j" 
d="M48 435q37 39 117 48l-3 -317l480 1v635q77 -8 113 -46q46 -47 46 -77l1 -547q0 -30 -46 -77q-45 -48 -153 -51l-497 -4q-37 6 -62 46q-31 44 -44 121l2 191q0 30 46 77z" />
    <glyph glyph-name="k" unicode="k" 
d="M642 799q79 -7 115 -46q46 -47 46 -77l1 -547q0 -30 -46 -77q-36 -39 -115 -49v327h-482v-324q-79 10 -115 49q-46 47 -46 77l1 547q0 30 46 77q36 39 115 46l-1 -310h482z" />
    <glyph glyph-name="l" unicode="l" 
d="M-2 801q71 -8 117 -40q40 -25 46 -62l-1 -532l639 -1q-9 -74 -41 -120q-25 -40 -62 -46l-497 4q-108 3 -153 51q-46 47 -46 77z" />
    <glyph glyph-name="m" unicode="m" 
d="M154 719q-1 0 10.5 -15.5t32 -41t47 -59t54 -68.5t54.5 -68.5t48 -60.5l1 3q21 27 48 60.5t54.5 68.5t54 68.5t47 59t32 41t10.5 15.5q27 30 41 39.5t2 2.5q36 34 110 41l1 -612h-2v-190q-79 10 -115 49q-46 47 -46 77l1 299q-73 -85 -235 -258l-3 -2l-1 -3l-3 2
q-162 173 -235 258l1 -299q0 -30 -46 -77q-36 -39 -115 -49v190h-2l1 612q74 -7 110 -41q-12 7 2 -2.5t41 -39.5z" />
    <glyph glyph-name="o" unicode="o" 
d="M159 167h483l-1 477l-539 -3q-37 6 -62 46q-32 46 -40 117h601q109 0 154 -48q46 -47 46 -77l1 -547q0 -30 -46 -77q-45 -48 -154 -48l-339 -2v1l-64 1q-109 0 -154 48q-46 47 -46 77v180h1l3 278l159 1z" />
    <glyph glyph-name="p" unicode="p" 
d="M641 644h-481v-353h-1v-34h-1v-257q-70 8 -115 42q-44 35 -44 80v175h2v507h600q109 0 154 -48q46 -47 46 -77v-225q0 -30 -45.5 -77.5t-154.5 -47.5l-389 -4q8 70 39 117t76 47h30h284v155z" />
    <glyph glyph-name="q" unicode="q" 
d="M645 9q-20 -2 -43 -2l-339 -2v1l-64 1q-109 0 -154 48q-46 47 -46 77v180h1l3 278l159 1l-3 -424h483l-1 477l-539 -3q-37 6 -62 46q-32 46 -40 117h601q109 0 154 -48q46 -47 46 -77l3 -890q-65 13 -112 45q-40 24 -46 61z" />
    <glyph glyph-name="r" unicode="r" 
d="M641 489v155h-481l-2 -644q-70 8 -115 42q-44 35 -44 80v175h2v507h600q109 0 154 -48q46 -47 46 -77v-225q0 -30 -45.5 -77.5t-154.5 -47.5l-32 -5l238 -324h-234l-362 489h430z" />
    <glyph glyph-name="s" unicode="s" 
d="M159 330q-79 10 -115 49q-46 47 -46 77l3 223q0 30 46 77q45 48 154 48h499q37 -6 62 -46q32 -46 40 -117l-641 3v-153h481v1l2 -3q80 -14 115 -52q46 -47 46 -77l-3 -223q0 -30 -46 -77q-45 -48 -154 -59h-499q-37 6 -62 46q-32 46 -40 117l641 -3v164l-18 2z" />
    <glyph glyph-name="t" unicode="t" 
d="M479 -6q-70 8 -115 42q-44 35 -44 80v242h1v284h-321v34q0 30 45.5 77.5t154.5 47.5l604 -3v-34q0 -30 -46 -77q-32 -34 -95 -45h-9h-175v-648z" />
    <glyph glyph-name="u" unicode="u" 
d="M203 7q-109 0 -154 48q-46 47 -46 77l1 547q0 30 46 77q36 38 113 46v-635h479l-1 196h1v439q77 -8 113 -46q46 -47 46 -77l1 -547q0 -30 -46 -77q-45 -48 -154 -48l-76 -1h-263z" />
    <glyph glyph-name="v" unicode="v" horiz-adv-x="642" 
d="M163 7q-93 0 -132 53v-1q-20 24 -30 46t-10 40l1 522q0 37 39 85v-1q34 45 120 55v-609h328v609q86 -10 120 -55v1q20 -24 29.5 -45.5t9.5 -39.5l1 -522q0 -18 -9.5 -40t-29.5 -46v1q-41 -53 -132 -53l-58 -1h-201z" />
    <glyph glyph-name="w" unicode="w" horiz-adv-x="822" 
d="M504 5q-56 0 -93 19q-36 -18 -90 -18l-58 -1l-45 1l-46 1q-93 0 -132 53v-1q-20 24 -30 46t-10 40l1 522q0 37 39 85v-1q34 45 120 55v-609l172 -1l1 469q-2 32 10 52.5t30.5 30.5t40 10t39.5 -10.5t29 -31t9 -50.5l1 -468v-3l172 -1v609q86 -10 120 -55v1
q20 -24 29.5 -45.5t9.5 -39.5l1 -522q0 -18 -9.5 -40t-29.5 -46v1q-41 -53 -132 -53l-58 -1l-45 1z" />
    <glyph glyph-name="x" unicode="x" 
d="M469 330h-367q-37 6 -62 46q-31 43 -39 110h-1v7l1 186q0 30 46 77q36 39 115 46l-1 -224v-85l309 -1h232q36 -7 61 -47q31 -46 39 -115h1l1 -201q0 -30 -46 -77q-36 -39 -115 -49v326zM161 281l5 -282q-71 6 -118 37q-40 24 -47 61l-2 184h162zM802 538h-162l-1 268
q72 -8 117 -39q41 -26 46 -64v-165z" />
    <glyph glyph-name="y" unicode="y" 
d="M102 0q-33 8 -57 48q-31 46 -37 117l634 -2l1 166l-174 1h-367q-37 6 -62 46q-31 43 -39 110h-1v7l1 186q0 30 46 77q36 39 115 46l-1 -224v-85l309 -1h169v314q72 -8 117 -39q41 -26 46 -64v-79h1v-294l1 -201q0 -30 -50 -78q-36 -39 -115 -49h-1z" />
    <glyph glyph-name="z" unicode="z" 
d="M801 -4l-663 1q-62 11 -95 45q-45 47 -45 77v32l-1 1l1 1l589 491l-387 -2q-109 0 -154.5 47.5t-45.5 77.5v34h663q63 -11 95 -45q46 -47 46 -77v-34l-586 -491l384 2q109 0 154 -47t45 -78v-35z" />
    <glyph glyph-name="space" unicode=" " horiz-adv-x="416" 
 />
    <glyph glyph-name="plus" unicode="+" horiz-adv-x="449" 
d="M309 486l142 2q-5 -79 -27 -116q-25 -47 -43 -47l-72 -1l-1 -143q-78 5 -115 27q-45 27 -46 42v72l-146 -1q4 79 25 116q27 45 43 47l79 1l1 148q78 -6 115 -29q47 -24 46 -42z" />
    <glyph glyph-name="comma" unicode="," horiz-adv-x="171" 
d="M5 88q0 18 47 43q37 22 116 27l-4 -284q-2 -16 -47 -43q-37 -21 -116 -25z" />
    <glyph glyph-name="quotesingle" unicode="'" horiz-adv-x="171" 
d="M5 723q0 18 47 43q37 22 116 27l-4 -284q-2 -16 -47 -43q-37 -21 -116 -25z" />
    <glyph glyph-name="quotedbl" unicode="&#x22;" horiz-adv-x="379" 
d="M5 723q0 18 47 43q37 22 116 27l-4 -284q-2 -16 -47 -43q-37 -21 -116 -25zM213 729q0 18 47 43q37 22 116 27l-4 -284q-2 -16 -47 -43q-37 -21 -116 -25z" />
    <glyph glyph-name="period" unicode="." horiz-adv-x="164" 
d="M0 136q0 5 0.5 8.5t0.5 5.5v5q0 10 5.5 16.5t19 9.5t37.5 3t63 -1q11 0 23.5 -5.5t13.5 -22.5v-5v-5.5t1 -8.5v-90q-1 -5 -1 -8.5v-5.5v-5q-1 -17 -13.5 -22.5t-23.5 -5.5h-88q-12 1 -25 7.5t-12 20.5v5q0 2 -0.5 5.5t-0.5 8.5v90v0z" />
    <glyph glyph-name="colon" unicode=":" horiz-adv-x="159" 
d="M0 136q0 5 0.5 8.5t0.5 5.5v5q0 10 5.5 16.5t19 9.5t37.5 3t63 -1q11 0 23.5 -5.5t13.5 -22.5v-5v-5.5t1 -8.5v-90q-1 -5 -1 -8.5v-5.5v-5q-1 -17 -13.5 -22.5t-23.5 -5.5h-88q-12 1 -25 7.5t-12 20.5v5q0 2 -0.5 5.5t-0.5 8.5v90zM0 454q0 5 0.5 8.5t0.5 5.5v5
q0 10 5.5 16.5t19 9.5t37.5 3t63 -1q11 0 23.5 -5.5t13.5 -22.5v-5v-5.5t1 -8.5v-90q-1 -5 -1 -8.5v-5.5v-5q-1 -17 -13.5 -22.5t-23.5 -5.5h-88q-12 1 -25 7.5t-12 20.5v5q0 2 -0.5 5.5t-0.5 8.5v90z" />
    <glyph glyph-name="semicolon" unicode=";" horiz-adv-x="159" 
d="M0 454q0 5 0.5 8.5t0.5 5.5v5q0 10 5.5 16.5t19 9.5t37.5 3t63 -1q11 0 23.5 -5.5t13.5 -22.5v-5v-5.5t1 -8.5v-90q-1 -5 -1 -8.5v-5.5v-5q-1 -17 -13.5 -22.5t-23.5 -5.5h-88q-12 1 -25 7.5t-12 20.5v5q0 2 -0.5 5.5t-0.5 8.5v90zM5 88q0 18 47 43q37 22 116 27l-4 -284
q-2 -16 -47 -43q-37 -21 -116 -25z" />
    <glyph glyph-name="exclam" unicode="!" horiz-adv-x="159" 
d="M0 136q0 5 0.5 8.5t0.5 5.5v5q0 10 5.5 16.5t19 9.5t37.5 3t63 -1q11 0 23.5 -5.5t13.5 -22.5v-5v-5.5t1 -8.5v-90q-1 -5 -1 -8.5v-5.5v-5q-1 -17 -13.5 -22.5t-23.5 -5.5h-88q-12 1 -25 7.5t-12 20.5v5q0 2 -0.5 5.5t-0.5 8.5v90zM0 681h2l-1 121q79 -5 115 -32
q46 -32 46 -53l-1 -466q-79 7 -115 34q-46 32 -46 53v343z" />
    <glyph glyph-name="backslash" unicode="\" horiz-adv-x="300" 
d="M28 676q-7 30 29 77q28 39 105 49l144 -673q6 -30 -30 -77q-28 -39 -105 -46l-36 175h-2z" />
    <glyph glyph-name="ellipsis" unicode="&#x2026;" horiz-adv-x="562" 
d="M0 136q0 5 0.5 8.5t0.5 5.5v5q0 10 5.5 16.5t19 9.5t37.5 3t63 -1q11 0 23.5 -5.5t13.5 -22.5v-5v-5.5t1 -8.5v-90q-1 -5 -1 -8.5v-5.5v-5q-1 -17 -13.5 -22.5t-23.5 -5.5h-88q-12 1 -25 7.5t-12 20.5v5q0 2 -0.5 5.5t-0.5 8.5v90zM196 133q0 5 0.5 8.5t0.5 5.5v5
q0 10 5.5 16.5t19 9.5t37.5 3t63 -1q11 0 23.5 -5.5t13.5 -22.5v-5v-5.5t1 -8.5v-90q-1 -5 -1 -8.5v-5.5v-5q-1 -17 -13.5 -22.5t-23.5 -5.5h-88q-12 1 -25 7.5t-12 20.5v5q0 2 -0.5 5.5t-0.5 8.5v90zM391 136q0 5 0.5 8.5t0.5 5.5v5q0 10 5.5 16.5t19 9.5t37.5 3t63 -1
q11 0 23.5 -5.5t13.5 -22.5v-5v-5.5t1 -8.5v-90q-1 -5 -1 -8.5v-5.5v-5q-1 -17 -13.5 -22.5t-23.5 -5.5h-88q-12 1 -25 7.5t-12 20.5v5q0 2 -0.5 5.5t-0.5 8.5v90z" />
    <glyph glyph-name="quotedblbase" unicode="&#x201e;" horiz-adv-x="367" 
d="M-1 68q0 18 47 43q37 22 116 27l-4 -284q-2 -16 -47 -43q-37 -21 -116 -25zM207 74q0 18 47 43q37 22 116 27l-4 -284q-2 -16 -47 -43q-37 -21 -116 -25z" />
    <glyph glyph-name="quotesinglbase" unicode="&#x201a;" horiz-adv-x="171" 
d="M5 88q0 18 47 43q37 22 116 27l-4 -284q-2 -16 -47 -43q-37 -21 -116 -25z" />
    <glyph glyph-name="quoteleft" unicode="&#x2018;" horiz-adv-x="171" 
d="M5 723q0 18 47 43q37 22 116 27l-4 -284q-2 -16 -47 -43q-37 -21 -116 -25z" />
    <glyph glyph-name="quoteright" unicode="&#x2019;" horiz-adv-x="171" 
d="M1 793q79 -4 116 -25q45 -27 47 -43l4 -284q-79 5 -116 27q-47 25 -47 43z" />
    <glyph glyph-name="quotedblleft" unicode="&#x201c;" horiz-adv-x="379" 
d="M5 723q0 18 47 43q37 22 116 27l-4 -284q-2 -16 -47 -43q-37 -21 -116 -25zM213 729q0 18 47 43q37 22 116 27l-4 -284q-2 -16 -47 -43q-37 -21 -116 -25z" />
    <glyph glyph-name="quotedblright" unicode="&#x201d;" horiz-adv-x="379" 
d="M1 799q79 -4 116 -25q45 -27 47 -43l4 -284q-79 5 -116 27q-47 25 -47 43zM209 793q79 -4 116 -25q45 -27 47 -43l4 -284q-79 5 -116 27q-47 25 -47 43z" />
    <glyph glyph-name="equal" unicode="=" horiz-adv-x="452" 
d="M1 321q4 79 25 116q27 45 43 47l382 4q-5 -79 -27 -116q-25 -47 -43 -47zM457 237q-4 -79 -25 -116q-27 -45 -43 -47l-382 -4q5 79 27 116q25 47 43 47z" />
    <glyph glyph-name="question" unicode="?" 
d="M1 640q8 71 40 116q25 40 62 46h499q109 -11 154 -59q46 -47 46 -77l3 -223q0 -30 -46 -77q-35 -38 -115 -52l-2 -3v1h-481v-86h-161l-2 121q0 30 46 77q36 39 115 49l465 3l18 2v164l-488 -2v-118h-156v118h3zM167 136v-90q-1 -5 -1 -8.5v-5.5v-5q1 -14 -12 -20.5
t-25 -7.5h-88q-11 0 -23.5 5.5t-13.5 22.5v5q0 2 -0.5 5.5t-0.5 8.5v90q0 5 0.5 8.5t0.5 5.5v5q1 17 13.5 22.5t23.5 5.5q39 1 63 1t37.5 -3t19 -9.5t5.5 -16.5v-5v-5.5t1 -8.5z" />
    <glyph glyph-name="ampersand" unicode="&#x26;" horiz-adv-x="459" 
d="M194 556q14 -2 28 -3t28 3l-28 -106zM52 571q1 0 -3 -2.5t-9 -6t-9 -7t-2 -4.5q-2 -1 0.5 -16.5t8.5 -53.5l-17 8q-3 35 -11 51q1 13 -10 22l6 9l20 -7l20 13zM396 571l5 6l21 -13l20 7l6 -9q-13 -10 -10 -22q-8 -15 -12 -51l-16 -8q5 38 7.5 53.5t-0.5 16.5
q2 1 -1.5 4.5t-8 7t-8.5 6t-3 2.5zM94 98l11 -5l42 -288zM311 -195l41 288l12 5zM104 101l-11 8l-27 145l9 -5zM380 247l11 5l-27 -146l-12 -9zM39 383q1 -2 3 -3q2 -2 3 -2.5t3 -2.5l8 -8l16 -106l-11 6zM387 267l-10 -6l16 106l8 8q8 8 9 8zM203 607l-9 -1
q-22 -13 -37 -44h-12q-4 10 3 20l35 32q10 6 21 3zM242 615q5 3 10.5 2t12.5 -3l33 -32q7 -9 3 -20h-12q-16 32 -37 44l-9 1zM283 147l7 5l-16 -282zM274 631q12 1 23 -2t24 -9l21 -9l-2 -10l-66 18v12zM169 617l-64 -17l-4 7l24 12q23 13 44 9v-11zM343 713q15 -24 6 -31
l-70 -5l-2 10q11 -2 25.5 -1.5t29.5 2.5l7 9l-3 14zM103 713l10 -2l-3 -14l4 -9q33 -4 57 -1l-3 -10l-69 5q-9 8 4 31zM414 390l-21 -15l5 49q5 3 9 6q4 2 6.5 4t3.5 2zM29 435q1 0 4 -2t7 -4q4 -3 9 -6l6 -48l-19 15zM215 641l1 -10l-10 -11h-14l-13 -3l-5 3v11l10 2
q2 2 3.5 6.5t3.5 12.5q5 -9 24 -11zM230 640q16 0 25 10q1 -7 3 -11t4 -7l9 -4v-8l-6 -5l-12 4h-15l-9 9zM181 -130l-15 282l5 -5zM267 687l4 -11l-19 -21l-11 -8l-10 14l-1 16h7l4 -11l17 16zM185 682l15 -18l5 12h5v-16l-8 -14l-11 7l-20 23l3 9zM160 373l-9 5l-3 77l9 -2
zM289 456l9 3l-3 -76l-9 -5zM21 484l18 -10l6 -44l-16 14zM408 470l17 11l-6 -42l-16 -10zM298 519l-12 -6v36l3 10h13zM145 557l12 -1l3 -11v-36l-12 7zM151 365l9 -1l4 -72l-9 2zM159 232l10 -10l4 -70l-7 4zM293 299l-9 -1l3 70l9 1zM43 687q0 -8 1.5 -19.5t3.5 -26.5
l-13 5q-6 25 -4 41h12zM407 685l10 2q3 -17 -1 -42l-13 -4q2 15 3.5 26t0.5 18zM287 156l-8 -4l5 70l9 7zM147 511l10 -5v-47l-9 6zM248 584l-17 -22l-3 27l10 22zM223 619l5 8l9 -13l-14 -24l-13 24l8 12zM145 661l18 3l24 -11v-13q-10 5 -18.5 8.5t-18.5 3.5zM206 611
l10 -22l-3 -28l-16 21zM295 653q-20 0 -36 -12v14l24 11l18 -2zM352 606q7 -5 18 -11.5t25 -15.5l-8 -7q-8 8 -19 14t-23 11zM297 466l-10 -6l2 48l9 5zM216 664q7 4 14 -2l10 -17h-11l-7 7l-7 -7h-11zM94 606l9 -8q-14 -5 -23.5 -11t-18.5 -15l-9 8q16 8 25.5 14.5
t16.5 11.5zM289 238l-8 -6l5 56l9 1zM155 288l9 -1l4 -58l-8 7zM56 641q14 3 23.5 5t19.5 6l5 -10q-7 -1 -12 -3t-11 -4zM340 656l-7 -10q-17 6 -35 6l5 10q6 -2 15 -3.5t22 -2.5zM105 655q13 1 21 2t15 4l4 -11q-10 0 -18 -1.5t-16 -3.5zM400 726l10 1q3 -8 5 -16.5
t6 -15.5l-13 -3q3 13 -8 34zM52 726q-10 -20 -7 -34l-14 3q5 7 7 15.5t5 16.5zM366 636q-5 3 -11 4.5t-13 4.5l6 8q9 -5 18.5 -7t23.5 -4zM129 747q-5 -7 -8.5 -15.5t-7.5 -18.5l-8 5q12 21 15 34zM320 746l9 5q1 -6 4.5 -14t8.5 -19l-8 -5q-2 10 -5.5 18t-8.5 15zM38 640
l34 -9l-15 -14zM59 768l11 -5q-5 -8 -9.5 -15t-6.5 -13l-8 3q5 6 8 14t5 16zM390 619l-12 12l36 9zM396 766q3 -17 12 -31l-7 -2q-2 5 -6 12.5t-9 15.5zM296 787l7 1q2 -5 7.5 -13t13.5 -19l-8 -3q-6 14 -10.5 21t-9.5 13zM89 789q-4 -5 -7 -10t-7 -12l-11 6q5 2 9 7t12 13z
M371 789q7 -8 13 -12l9 -6l-13 -8q-2 8 -4.5 13t-7.5 11zM151 784q-3 -5 -7.5 -13t-12.5 -19l-6 1q17 22 22 34zM213 556q-15 4 -21 15q-1 5 4 8zM225 580l3 -21q-5 -4 -9 0l2 21h4zM249 580q8 -2 3 -8q-5 -9 -21 -15zM218 641q4 8 7 1l-2 -15z" />
    <glyph glyph-name="A" unicode="A" 
d="M641 328h-481l-1 -325q-70 8 -115 42q-44 35 -44 80v551q0 30 45.5 77.5t154.5 47.5h600v-801h-159v328zM160 487h481v154h-481v-154z" />
    <glyph glyph-name="n" unicode="n" horiz-adv-x="665" 
d="M111 761q-12 7 2 -2.5t41 -39.5q39 -41 85 -93.5t92 -107.5t88.5 -108t75.5 -95v361q0 30 46 77q36 39 115 46l-1 -802q-47 -1 -115 49q-35 35 -344 403q-10 9 -34 32l-1 -475h-1v-1h-160v179l1 618q74 -7 110 -41z" />
    <glyph glyph-name="B" unicode="B" 
d="M208 802v2h393q109 0 154 -48q46 -47 46 -77l1 -547q0 -30 -46 -77q-45 -48 -154 -48l-603 -4l4 587l159 1l-1 -424h481l3 152l-430 4q8 70 39 117t76 47h314l-3 157l-518 -2q-45 0 -80 44q-34 45 -42 115z" />
    <glyph glyph-name="b" unicode="b" 
d="M208 802v2h393q109 0 154 -48q46 -47 46 -77l1 -547q0 -30 -46 -77q-45 -48 -154 -48l-603 -4l4 587l159 1l-1 -424h481l3 152l-430 4q8 70 39 117t76 47h314l-3 157l-518 -2q-45 0 -80 44q-34 45 -42 115z" />
  </font>
</defs>
</svg>
