<?xml version="1.0" standalone="no"?>
<!DOCTYPE svg PUBLIC "-//W3C//DTD SVG 1.1//EN" "http://www.w3.org/Graphics/SVG/1.1/DTD/svg11.dtd" >
<svg>
<metadata>
Created by FontForge 20110222 at Fri Nov 14 13:07:51 2014
 By deploy user
(c) 1998 Digital Graphic Labs - All Rights Reserved
</metadata>
<defs>
<font id="Eddie" horiz-adv-x="660" >
  <font-face 
    font-family="Eddie"
    font-weight="400"
    font-stretch="normal"
    units-per-em="1024"
    panose-1="2 11 6 0 5 3 2 2 2 4"
    ascent="819"
    descent="-205"
    x-height="866"
    cap-height="870"
    bbox="-186 -332 995 1215"
    underline-thickness="0"
    underline-position="0"
    unicode-range="U+0020-00E0"
  />
<missing-glyph horiz-adv-x="1024" 
d="M137 281q29 0 54 -10.5t44 -29.5t29.5 -44t10.5 -54q0 -28 -10.5 -53t-29.5 -44t-44 -30t-54 -11q-28 0 -53 11t-44 30t-29.5 44t-10.5 53q0 29 10.5 54t29.5 44t44 29.5t53 10.5zM137 233q-15 0 -31 -8t-29 -21t-21 -29t-8 -32q0 -15 8 -31t21 -29t29 -21t31 -8
q16 0 32 8t28.5 21t21 29t8.5 31q0 16 -8.5 32t-21 29t-28.5 21t-32 8z" />
    <glyph glyph-name=".notdef" horiz-adv-x="1024" 
d="M137 281q29 0 54 -10.5t44 -29.5t29.5 -44t10.5 -54q0 -28 -10.5 -53t-29.5 -44t-44 -30t-54 -11q-28 0 -53 11t-44 30t-29.5 44t-10.5 53q0 29 10.5 54t29.5 44t44 29.5t53 10.5zM137 233q-15 0 -31 -8t-29 -21t-21 -29t-8 -32q0 -15 8 -31t21 -29t29 -21t31 -8
q16 0 32 8t28.5 21t21 29t8.5 31q0 16 -8.5 32t-21 29t-28.5 21t-32 8z" />
    <glyph glyph-name="glyph1" horiz-adv-x="0" 
 />
    <glyph glyph-name="glyph2" horiz-adv-x="1024" 
 />
    <glyph glyph-name="space" unicode=" " horiz-adv-x="512" 
 />
    <glyph glyph-name="period" unicode="." horiz-adv-x="288" 
d="M137 281q29 0 54 -10.5t44 -29.5t29.5 -44t10.5 -54q0 -28 -10.5 -53t-29.5 -44t-44 -30t-54 -11q-28 0 -53 11t-44 30t-29.5 44t-10.5 53q0 29 10.5 54t29.5 44t44 29.5t53 10.5zM137 233q-15 0 -31 -8t-29 -21t-21 -29t-8 -32q0 -15 8 -31t21 -29t29 -21t31 -8
q16 0 32 8t28.5 21t21 29t8.5 31q0 16 -8.5 32t-21 29t-28.5 21t-32 8z" />
    <glyph glyph-name="A" unicode="A" horiz-adv-x="767" 
d="M731 870v-871h-295l-165 193l-149 -212l-170 193l154 220l-104 105l146 210l104 -115l191 277h288zM680 835h-203l-222 -318l-101 114l-89 -124l105 -114l-152 -211l98 -111l152 207l197 -239h215v796zM531 647v-461l-177 216zM490 319v172l-70 -92z" />
    <glyph glyph-name="a" unicode="a" horiz-adv-x="767" 
d="M731 870v-871h-295l-165 193l-149 -212l-170 193l154 220l-104 105l146 210l104 -115l191 277h288zM680 835h-203l-222 -318l-101 114l-89 -124l105 -114l-152 -211l98 -111l152 207l197 -239h215v796zM531 647v-461l-177 216zM490 319v172l-70 -92z" />
    <glyph glyph-name="d" unicode="d" horiz-adv-x="790" 
d="M0 871h344l409 -603l-154 -267h-597zM46 838l6 -786h505l128 222l-380 564h-259zM191 746l367 -540h-367v540zM464 244l-215 319v-319h215z" />
    <glyph glyph-name="D" unicode="D" horiz-adv-x="790" 
d="M0 871h344l409 -603l-154 -267h-597zM46 838l6 -786h505l128 222l-380 564h-259zM191 746l367 -540h-367v540zM464 244l-215 319v-319h215z" />
    <glyph glyph-name="E" unicode="E" horiz-adv-x="522" 
d="M0 870h490v-235h-245v-65h242v-226h-242v-100h253v-243h-355l-143 187v682zM439 836h-389v-620l118 -167h279v156h-250v184h242v141h-245v153h245v153z" />
    <glyph glyph-name="e" unicode="e" horiz-adv-x="522" 
d="M0 870h490v-235h-245v-65h242v-226h-242v-100h253v-243h-355l-143 187v682zM439 836h-389v-620l118 -167h279v156h-250v184h242v141h-245v153h245v153z" />
    <glyph glyph-name="i" unicode="i" horiz-adv-x="267" 
d="M0 870h255v-869h-255v869zM46 834v-789h159v789h-159z" />
    <glyph glyph-name="I" unicode="I" horiz-adv-x="267" 
d="M0 870h255v-869h-255v869zM46 834v-789h159v789h-159z" />
    <glyph glyph-name="M" unicode="M" horiz-adv-x="763" 
d="M-130 866h378l115 -151l128 163l236 -237v-973l-251 256v527l-113 -136l-108 128v-442h-247v683zM-37 827l91 -124v-656h147v555l162 -194l163 206v-659l147 -151v814l-178 186l-139 -171l-151 194h-242z" />
    <glyph glyph-name="m" unicode="m" horiz-adv-x="763" 
d="M-130 866h378l115 -151l128 163l236 -237v-973l-251 256v527l-113 -136l-108 128v-442h-247v683zM-37 827l91 -124v-656h147v555l162 -194l163 206v-659l147 -151v814l-178 186l-139 -171l-151 194h-242z" />
    <glyph glyph-name="n" unicode="n" 
d="M-186 870h356l216 -240v233h243v-1170l-239 255v308l-148 157v-409h-239v672zM-72 832l120 -141v-641h145v492l247 -259v-308l136 -149v1002h-144v-316l-304 320h-200z" />
    <glyph glyph-name="N" unicode="N" 
d="M-186 870h356l216 -240v233h243v-1170l-239 255v308l-148 157v-409h-239v672zM-72 832l120 -141v-641h145v492l247 -259v-308l136 -149v1002h-144v-316l-304 320h-200z" />
    <glyph glyph-name="O" unicode="O" horiz-adv-x="1010" 
d="M800 1h-635l-165 207l472 663l490 -656zM472 780l-408 -569l130 -166h563l129 177zM720 200h-493l245 344zM630 240l-155 210l-151 -210h306z" />
    <glyph glyph-name="o" unicode="o" horiz-adv-x="1010" 
d="M800 1h-635l-165 207l472 663l490 -656zM472 780l-408 -569l130 -166h563l129 177zM720 200h-493l245 344zM630 240l-155 210l-151 -210h306z" />
    <glyph glyph-name="r" unicode="r" horiz-adv-x="801" 
d="M0 867h249v-87l116 117l332 -430l-170 -238l236 -303l-170 -188l-332 412v-146h-261v863zM45 834v-784h154v263l394 -496l104 104l-241 304l170 242l-269 355l-158 -172v184h-154zM190 413l154 167l125 -167h-279zM302 454h75l-33 42z" />
    <glyph glyph-name="R" unicode="R" horiz-adv-x="801" 
d="M0 867h249v-87l116 117l332 -430l-170 -238l236 -303l-170 -188l-332 412v-146h-261v863zM45 834v-784h154v263l394 -496l104 104l-241 304l170 242l-269 355l-158 -172v184h-154zM190 413l154 167l125 -167h-279zM302 454h75l-33 42z" />
    <glyph glyph-name="P" unicode="P" horiz-adv-x="731" 
d="M0 867h249v-87l116 117l332 -430l-86 -118l-350 -89v-256h-261v863zM45 834v-784h154v263l360 74l67 80l-269 355l-158 -172v184h-154zM190 443l154 192l125 -167zM283 492l94 18l-33 42z" />
    <glyph glyph-name="p" unicode="p" horiz-adv-x="731" 
d="M0 867h249v-87l116 117l332 -430l-86 -118l-350 -89v-256h-261v863zM45 834v-784h154v263l360 74l67 80l-269 355l-158 -172v184h-154zM190 443l154 192l125 -167zM283 492l94 18l-33 42z" />
    <glyph glyph-name="f" unicode="f" horiz-adv-x="514" 
d="M0 870h490v-235h-245v-65h242v-226h-242v-343h-102l-143 187v682zM439 836h-389v-620l118 -167h29v340h242v141h-245v153h245v153z" />
    <glyph glyph-name="F" unicode="F" horiz-adv-x="514" 
d="M0 870h490v-235h-245v-65h242v-226h-242v-343h-102l-143 187v682zM439 836h-389v-620l118 -167h29v340h242v141h-245v153h245v153z" />
    <glyph glyph-name="W" unicode="W" horiz-adv-x="897" 
d="M217 3l-216 206v672h247v-442l108 128l112 -136v528l251 256v-974l136 -235l-371 -2l-128 163zM218 79l130 170l171 -210h270l-124 202v838l-147 -151v-660l-162 206l-162 -194v555h-147v-578z" />
    <glyph glyph-name="w" unicode="w" horiz-adv-x="897" 
d="M217 3l-216 206v672h247v-442l108 128l112 -136v528l251 256v-974l136 -235l-371 -2l-128 163zM218 79l130 170l171 -210h270l-124 202v838l-147 -151v-660l-162 206l-162 -194v555h-147v-578z" />
    <glyph glyph-name="v" unicode="v" horiz-adv-x="754" 
d="M356 1l-355 325v544h247v-446l108 -116l112 113v460l251 256v-803zM348 80l317 277v644l-147 -151v-466l-162 -154l-162 166v428h-147v-451z" />
    <glyph glyph-name="V" unicode="V" horiz-adv-x="754" 
d="M356 1l-355 325v544h247v-446l108 -116l112 113v460l251 256v-803zM348 80l317 277v644l-147 -151v-466l-162 -154l-162 166v428h-147v-451z" />
    <glyph glyph-name="h" unicode="h" 
d="M3 870h244v-232l139 -45v270h243v-1170l-239 255v405l-148 60v-409h-239v866zM48 832v-782h145v436l247 -97v-414l136 -149v1002h-144v-316l-240 76v244h-144z" />
    <glyph glyph-name="H" unicode="H" 
d="M3 870h244v-232l139 -45v270h243v-1170l-239 255v405l-148 60v-409h-239v866zM48 832v-782h145v436l247 -97v-414l136 -149v1002h-144v-316l-240 76v244h-144z" />
    <glyph glyph-name="L" unicode="L" horiz-adv-x="809" 
d="M0 5v865h238v-629h278l255 -240zM44 55h594l-149 136l-299 1v626h-146v-763z" />
    <glyph glyph-name="l" unicode="l" horiz-adv-x="809" 
d="M0 5v865h238v-629h278l255 -240zM44 55h594l-149 136l-299 1v626h-146v-763z" />
    <glyph glyph-name="z" unicode="z" horiz-adv-x="994" 
d="M826 870v-163l-438 -477h318l241 -230h-947v242l387 401h-386v227h825zM780 825l-736 2v-137h466l-450 -468l-1 -171h763l-149 136h-388l494 545z" />
    <glyph glyph-name="Z" unicode="Z" horiz-adv-x="994" 
d="M826 870v-163l-438 -477h318l241 -230h-947v242l387 401h-386v227h825zM780 825l-736 2v-137h466l-450 -468l-1 -171h763l-149 136h-388l494 545z" />
    <glyph glyph-name="t" unicode="t" horiz-adv-x="904" 
d="M275 50h161v625h209l115 150h-731v-153h246v-622zM-3 622v248h864l-179 -247h-198v-625h-261v625z" />
    <glyph glyph-name="T" unicode="T" horiz-adv-x="904" 
d="M275 50h161v625h209l115 150h-731v-153h246v-622zM-3 622v248h864l-179 -247h-198v-625h-261v625z" />
    <glyph glyph-name="j" unicode="j" horiz-adv-x="661" 
d="M421 874h209v-567l-307 -308l-323 323l127 121l175 -188l119 129v490zM469 833v-476l-167 -176l-179 197l-58 -56l262 -253l258 262v502h-116z" />
    <glyph glyph-name="J" unicode="J" horiz-adv-x="661" 
d="M421 874h209v-567l-307 -308l-323 323l127 121l175 -188l119 129v490zM469 833v-476l-167 -176l-179 197l-58 -56l262 -253l258 262v502h-116z" />
    <glyph glyph-name="B" unicode="B" horiz-adv-x="790" 
d="M1 872h340l412 -311l-142 -120l140 -129l-410 -311h-340v871zM49 835l3 -797h264l355 271l-136 126l136 131l-349 269h-273zM189 706h118l152 -116l-61 -73h-209v189zM222 665l-1 -111h142l33 39l-92 72h-82zM187 183v183h209l62 -68l-153 -115h-118zM219 217h74l105 79
l-35 36h-143z" />
    <glyph glyph-name="b" unicode="b" horiz-adv-x="790" 
d="M1 872h340l412 -311l-142 -120l140 -129l-410 -311h-340v871zM49 835l3 -797h264l355 271l-136 126l136 131l-349 269h-273zM189 706h118l152 -116l-61 -73h-209v189zM222 665l-1 -111h142l33 39l-92 72h-82zM187 183v183h209l62 -68l-153 -115h-118zM219 217h74l105 79
l-35 36h-143z" />
    <glyph glyph-name="U" unicode="U" horiz-adv-x="754" 
d="M258 1l-257 232v637h247v-549l60 -74h93l67 74v560l251 256v-895l-260 -239zM271 71l161 -1l233 205v726l-147 -151v-578l-80 -76h-157l-87 88v539h-147v-532z" />
    <glyph glyph-name="u" unicode="u" horiz-adv-x="754" 
d="M258 1l-257 232v637h247v-549l60 -74h93l67 74v560l251 256v-895l-260 -239zM271 71l161 -1l233 205v726l-147 -151v-578l-80 -76h-157l-87 88v539h-147v-532z" />
    <glyph glyph-name="k" unicode="k" horiz-adv-x="836" 
d="M0 867h249v-237l239 251h309l-413 -468l387 -408l-190 -171l-320 316v-146h-261v863zM45 834v-784h154v263l387 -402l103 103l-387 403l395 427h-175l-325 -345l2 335h-154z" />
    <glyph glyph-name="K" unicode="K" horiz-adv-x="836" 
d="M0 867h249v-237l239 251h309l-413 -468l387 -408l-190 -171l-320 316v-146h-261v863zM45 834v-784h154v263l387 -402l103 103l-387 403l395 427h-175l-325 -345l2 335h-154z" />
    <glyph glyph-name="Q" unicode="Q" horiz-adv-x="1044" 
d="M799 187l-51 -56l140 -111l52 63zM800 1h-635l-165 207l472 663l490 -656l-49 -65l82 -64l-96 -120l-78 62zM472 780l-408 -569l130 -166h563l14 19l-81 67l98 116l74 -58l24 33zM720 200h-493l245 344zM630 240l-155 210l-151 -210h306z" />
    <glyph glyph-name="q" unicode="q" horiz-adv-x="1044" 
d="M799 187l-51 -56l140 -111l52 63zM800 1h-635l-165 207l472 663l490 -656l-49 -65l82 -64l-96 -120l-78 62zM472 780l-408 -569l130 -166h563l14 19l-81 67l98 116l74 -58l24 33zM720 200h-493l245 344zM630 240l-155 210l-151 -210h306z" />
    <glyph glyph-name="s" unicode="s" horiz-adv-x="915" 
d="M1 870h871l-119 -227h-313l387 -401v-242h-827v230h439l-438 477v163zM46 825l2 -93l493 -545h-489v-136l715 -1v172l-450 468h392l70 137z" />
    <glyph glyph-name="S" unicode="S" horiz-adv-x="915" 
d="M1 870h871l-119 -227h-313l387 -401v-242h-827v230h439l-438 477v163zM46 825l2 -93l493 -545h-489v-136l715 -1v172l-450 468h392l70 137z" />
    <glyph glyph-name="X" unicode="X" horiz-adv-x="834" 
d="M94 808l230 -370l-219 -378h161l135 231l131 -228h161l-216 371l216 377h-157l-131 -251l-143 248h-168zM0 863h295l109 -187l99 190h292l-252 -432l248 -426h-292l-95 173l-105 -180h-292l252 429z" />
    <glyph glyph-name="x" unicode="x" horiz-adv-x="834" 
d="M94 808l230 -370l-219 -378h161l135 231l131 -228h161l-216 371l216 377h-157l-131 -251l-143 248h-168zM0 863h295l109 -187l99 190h292l-252 -432l248 -426h-292l-95 173l-105 -180h-292l252 429z" />
    <glyph glyph-name="y" unicode="y" horiz-adv-x="834" 
d="M94 808l229 -370l-218 -378h161l427 751h-157l-131 -251l-143 248h-168zM0 863h295l109 -187l99 190h292l-496 -865h-292l251 429z" />
    <glyph glyph-name="Y" unicode="Y" horiz-adv-x="834" 
d="M94 808l229 -370l-218 -378h161l427 751h-157l-131 -251l-143 248h-168zM0 863h295l109 -187l99 190h292l-496 -865h-292l251 429z" />
    <glyph glyph-name="G" unicode="G" horiz-adv-x="653" 
d="M0 870h306h308v-117v-118h-369v-391l206 1v48h-105v165h276v-335v-122h-479l-143 187v682zM563 836h-513v-620l118 -167h202h201l-1 364h-157v-67h82v-139l-302 4l1 472h184h185v77v76z" />
    <glyph glyph-name="g" unicode="g" horiz-adv-x="653" 
d="M0 870h306h308v-117v-118h-369v-391l206 1v48h-105v165h276v-335v-122h-479l-143 187v682zM563 836h-513v-620l118 -167h202h201l-1 364h-157v-67h82v-139l-302 4l1 472h184h185v77v76z" />
    <glyph glyph-name="c" unicode="c" horiz-adv-x="653" 
d="M0 870h614v-235h-369v-391h377v-243h-479l-143 187v682zM563 836h-513v-620l118 -167h403v156h-374l-3 478h369v153z" />
    <glyph glyph-name="C" unicode="C" horiz-adv-x="653" 
d="M0 870h614v-235h-369v-391h377v-243h-479l-143 187v682zM563 836h-513v-620l118 -167h403v156h-374l-3 478h369v153z" />
    <glyph glyph-name="agrave" unicode="&#xe0;" horiz-adv-x="637" 
d="M28 52v133h-2.5h-3.5q-1 0 -2.5 0.5l-1.5 0.5l-1.5 1l-1.5 1q0 1 -1.5 1.5l-1.5 0.5q-3 3 -5 6t-2 5q0 3 0.5 6t0.5 4l4 4t5 3t7 1.5t7 0.5h72q4 0 8.5 -0.5t7.5 -0.5q5 -1 9 -2.5t7 -3.5q3 -1 7 -2.5t7 -3.5q3 -1 6.5 -4t5.5 -5q2 -1 4.5 -4t3.5 -5q3 -3 5 -6t3 -5l4 -6
t3 -6q2 -3 3 -6.5t1 -6.5q0 -2 1 -5.5t1 -7.5q1 -4 1.5 -8t0.5 -9v-16q0 -9 -1 -18t-4 -17q-3 -9 -8 -17t-13 -14q-3 -1 -5.5 -3.5t-5.5 -4.5q-3 -1 -6 -3.5t-6 -4.5h0.5h0.5v-1t-2 -1q-1 -1 -4.5 -2t-8.5 -1q-4 -1 -11.5 -1.5t-17.5 -0.5h1h-1h-2h-5q-2 0 -5 -0.5t-6 -0.5
t-7 -0.5t-7 -0.5h-7.5h-8.5t-8.5 0.5t-7.5 0.5t-6.5 1t-6.5 1t-5 1l-4 2q-3 3 -5 6.5t-2 5.5t0.5 5t0.5 4l4 4t4 3q3 1 7 1.5t7 0.5zM62 52h36q5 0 10 0.5t8 0.5q4 1 7.5 2.5t5.5 2.5l6 4t5 4q3 2 5.5 5t3.5 6l0.5 0.5l0.5 0.5l1 1.5t1 2.5l2 4t1 5t0.5 7.5t0.5 9.5v8v8
t-0.5 8t-0.5 7q0 2 -1 3.5t-1 2.5q0 2 -1.5 4t-1.5 3q-2 5 -4.5 9t-5.5 7l-6 6t-6 4q-3 2 -7.5 3.5t-8.5 2.5q-3 1 -7.5 1.5t-8.5 0.5h-7.5h-8.5t-8.5 -0.5t-9.5 -0.5v-133zM395 80v-46q-8 -4 -17 -8t-18 -7t-19 -4.5t-20 -1.5q-6 0 -11.5 0.5t-12.5 1.5q-5 1 -11.5 2.5
t-13.5 2.5l-1.5 1t-3.5 2q-1 1 -3.5 2t-4.5 2q-2 2 -4 3l-4 2q-1 2 -3 3t-3 1q-2 2 -4.5 5t-5.5 6q-2 3 -4.5 7.5t-4.5 8.5q-1 5 -3 9t-3 7q0 4 -1.5 8t-1.5 7q0 4 -0.5 8t-0.5 8t0.5 8.5t0.5 8.5q0 1 0.5 3t0.5 4q1 2 2.5 5.5t2.5 6.5q2 3 4 7t3 8q3 5 5.5 9.5t5.5 8.5
q3 5 6.5 9t6.5 8q4 5 8.5 8.5t8.5 6.5q5 3 10.5 6t9.5 4q6 2 12 3t11 1h7h7t6.5 -1t6.5 -2q2 0 3.5 -0.5t2.5 -0.5q2 0 3.5 -1t2.5 -1q2 0 3.5 -1t2.5 -1q2 -1 3.5 -2t2.5 -2q8 9 14 9q3 0 6 -1t4 -3q2 -2 3.5 -5.5t1.5 -7.5q1 -4 1.5 -8t0.5 -9q0 -4 -0.5 -8.5t-1.5 -8.5
q0 -4 -1.5 -8t-3.5 -6q-1 -3 -3.5 -4.5t-5.5 -1.5q-2 0 -5.5 1t-6.5 4l-1.5 1.5t-1.5 2.5q0 2 -1.5 3.5t-1.5 2.5q0 4 -1.5 7.5t-4.5 5.5q-2 2 -5 4.5t-6 3.5q-3 2 -7 2.5t-7 0.5t-7.5 0.5t-7.5 0.5q-19 0 -32 -6q-5 -3 -11.5 -9.5t-11.5 -14.5q-2 -3 -4 -7t-2 -7t-1.5 -7
t-1.5 -7t-0.5 -7t-0.5 -7t0.5 -7t0.5 -9q0 -1 1 -2.5t1 -3.5q0 -1 1 -3t1 -4q1 -1 2 -3t1 -4q1 -1 2 -3.5t1 -4.5q0 -1 1 -3t1 -4q1 -1 2 -3t1 -4q5 -3 10.5 -6t10.5 -5q7 -1 12.5 -2.5t11.5 -1.5t12.5 1t12.5 2q6 2 12.5 4t11.5 3v24h-35q-5 0 -9.5 1.5t-7.5 3.5
q-6 6 -6 12q0 3 1.5 6.5t3.5 5.5q3 2 8 3.5t10 1.5h61q5 0 9 -1t7 -3q3 -1 5.5 -4t2.5 -6q1 -3 0.5 -6t-2.5 -5q-1 -3 -5 -5t-9 -4zM499 185v-133h74v32q0 6 1.5 10.5t3.5 6.5q6 6 12 6q3 0 6 -1.5t5 -3.5q6 -6 6 -18v-66h-161q-5 0 -9.5 1.5t-7.5 3.5q-6 6 -6 12
q0 3 1.5 6.5t4.5 5.5t7.5 3.5t9.5 1.5h19v133h-19q-5 0 -9.5 1.5t-7.5 3.5q-6 6 -6 12q0 3 1.5 6.5t4.5 5.5q3 3 7.5 4.5t9.5 1.5h74q6 0 10 -1.5t6 -3.5q6 -6 6 -12q0 -3 -1 -6.5t-4 -5.5q-6 -6 -17 -6h-21z" />
  </font>
</defs>
</svg>
